<?xml version="1.0" encoding="UTF-8" standalone="no"?>
<!-- Created with Inkscape (http://www.inkscape.org/) -->

<svg
   width="46.013355mm"
   height="46.013359mm"
   viewBox="0 0 46.013355 46.013359"
   version="1.1"
   id="svg5"
   xml:space="preserve"
   inkscape:version="1.3 (0e150ed6c4, 2023-07-21)"
   sodipodi:docname="img-postgresql.svg"
   xmlns:inkscape="http://www.inkscape.org/namespaces/inkscape"
   xmlns:sodipodi="http://sodipodi.sourceforge.net/DTD/sodipodi-0.dtd"
   xmlns:xlink="http://www.w3.org/1999/xlink"
   xmlns="http://www.w3.org/2000/svg"
   xmlns:svg="http://www.w3.org/2000/svg"><sodipodi:namedview
     id="namedview7"
     pagecolor="#ffffff"
     bordercolor="#999999"
     borderopacity="1"
     inkscape:showpageshadow="0"
     inkscape:pageopacity="0"
     inkscape:pagecheckerboard="0"
     inkscape:deskcolor="#d1d1d1"
     inkscape:document-units="mm"
     showgrid="false"
     showguides="true"
     inkscape:zoom="2"
     inkscape:cx="57"
     inkscape:cy="73.25"
     inkscape:window-width="1920"
     inkscape:window-height="991"
     inkscape:window-x="-9"
     inkscape:window-y="-9"
     inkscape:window-maximized="1"
     inkscape:current-layer="layer1" /><defs
     id="defs2"><style
       type="text/css"
       id="style1-2">&#10;   <![CDATA[
    .fil0 {fill:none}
    .fil2 {fill:black;fill-rule:nonzero}
    .fil3 {fill:#ACD4F7;fill-rule:nonzero}
    .fil4 {fill:#DEDEDE;fill-rule:nonzero}
    .fil1 {fill:white;fill-rule:nonzero}
   ]]>&#10;  </style><linearGradient
       id="a-8"
       gradientUnits="userSpaceOnUse"
       x1="2.5899999"
       y1="10.16"
       x2="15.41"
       y2="10.16"
       gradientTransform="scale(7.11111)"><stop
         offset="0"
         style="stop-color:#005ba1;stop-opacity:1"
         id="stop4-1" /><stop
         offset=".07"
         style="stop-color:#0060a9;stop-opacity:1"
         id="stop5-8" /><stop
         offset=".36"
         style="stop-color:#0071c8;stop-opacity:1"
         id="stop6-8" /><stop
         offset=".52"
         style="stop-color:#0078d4;stop-opacity:1"
         id="stop7-5" /><stop
         offset=".64"
         style="stop-color:#0074cd;stop-opacity:1"
         id="stop8-0" /><stop
         offset=".82"
         style="stop-color:#006abb;stop-opacity:1"
         id="stop9-4" /><stop
         offset="1"
         style="stop-color:#005ba1;stop-opacity:1"
         id="stop10-9" /></linearGradient><linearGradient
       inkscape:collect="always"
       xlink:href="#a-8"
       id="linearGradient767"
       gradientUnits="userSpaceOnUse"
       gradientTransform="matrix(2.7066211,0,0,2.7066211,-308.80947,-279.14146)"
       x1="2.5899999"
       y1="10.16"
       x2="15.41"
       y2="10.16" /></defs><g
     inkscape:label="Layer 1"
     inkscape:groupmode="layer"
     id="layer1"
     transform="translate(309.43101,277.78835)"><g
       id="g76"
       inkscape:export-filename=".\g76.png"
       inkscape:export-xdpi="96"
       inkscape:export-ydpi="96"><g
         id="g35"
         style="fill:none;fill-opacity:1;stroke-width:4.60011"
         transform="matrix(0.7189589,0,0,0.7189589,-309.43102,-123.62729)">&#10;		<circle
   class="st0"
   cx="32"
   cy="-182.42264"
   r="32"
   id="circle7"
   style="fill:none;fill-opacity:1;stroke-width:4.60011"
   clip-path="url(#SVGID_2_)" />&#10;	</g><g
         id="g771"
         inkscape:export-filename="postgresql.png"
         inkscape:export-xdpi="96"
         inkscape:export-ydpi="96"
         transform="matrix(0.99997159,0,0,0.99997159,-1.9825425,-0.0063939)"><g
           id="g769"><path
             style="fill:url(#linearGradient767);fill-rule:nonzero;stroke:none;stroke-width:0.264583"
             d="m -284.44988,-265.22985 c -9.58093,0 -17.34935,-2.70581 -17.34935,-6.2783 v 33.45258 c 0,3.43773 7.6333,6.2254 17.10539,6.28021 h 0.24396 c 9.58093,0 17.34937,-2.70735 17.34937,-6.28021 v -33.45258 c 0,3.49104 -7.76844,6.27868 -17.34937,6.27868 z m 0,0"
             id="path695" /><path
             style="fill:#e8e8e8;fill-opacity:1;fill-rule:nonzero;stroke:none;stroke-width:0.264583"
             d="m -267.10051,-271.50815 c 0,3.49104 -7.76844,6.27868 -17.34937,6.27868 -9.58093,0 -17.34935,-2.70619 -17.34935,-6.27868 0,-3.57287 7.76842,-6.28021 17.34935,-6.28021 9.58093,0 17.34937,2.70734 17.34937,6.28021"
             id="path743" /><path
             style="fill:#50e6ff;fill-opacity:1;fill-rule:nonzero;stroke:none;stroke-width:0.264583"
             d="m -271.13279,-272.02275 c 0,2.21977 -5.98257,4.00564 -13.31709,4.00564 -7.33452,0 -13.31708,-1.78587 -13.31708,-4.00564 0,-2.21977 5.98256,-3.97861 13.31708,-3.97861 7.33452,0 13.31709,1.78549 13.31709,3.97861"
             id="path749" /><path
             style="fill:#198ab3;fill-opacity:1;fill-rule:nonzero;stroke:none;stroke-width:0.264583"
             d="m -284.44988,-271.0221 a 31.284189,31.284189 0 0 0 -10.52943,1.54341 30.911183,30.911183 0 0 0 10.52943,1.46158 30.196,30.196 0 0 0 10.52945,-1.57006 32.098332,32.098332 0 0 0 -10.52945,-1.43493 z m 0,0"
             id="path752" /></g><g
           id="g768"
           transform="matrix(0.21796345,0,0,0.21796345,-232.83274,-213.2575)"><path
             d="m -134.97714,-169.61296 c -1.23057,-3.72679 -4.45441,-6.32301 -8.62392,-6.94636 -1.96578,-0.29342 -4.2174,-0.16828 -6.88141,0.38112 -4.64354,0.958 -8.08876,1.32253 -10.60298,1.39363 9.48996,-16.02344 17.20708,-34.29613 21.64964,-51.49658 7.18336,-27.81195 3.34471,-40.48215 -1.14098,-46.21357 -11.87146,-15.16878 -29.19184,-23.31821 -50.08825,-23.56802 -11.14621,-0.13604 -20.93244,2.06485 -26.03673,3.64714 -4.75305,-0.83807 -9.86397,-1.30641 -15.22661,-1.39315 -10.05074,-0.16022 -18.93206,2.03072 -26.52071,6.53395 -4.20223,-1.42018 -10.94428,-3.42293 -18.73107,-4.70138 -18.31441,-3.00673 -33.07458,-0.66363 -43.87095,6.96342 -13.07359,9.23494 -19.13447,25.27972 -18.0134,47.68922 0.35552,7.1151 4.3359,28.76237 10.6025,49.29284 3.60164,11.79988 7.44218,21.59939 11.41498,29.12784 5.63378,10.6755 11.66195,16.96249 18.42959,19.21979 3.79362,1.26423 10.68546,2.14875 17.93471,-3.88747 0.91866,1.11206 2.14401,2.21796 3.77134,3.24469 2.0658,1.3031 4.59235,2.36775 7.1151,2.99868 9.09321,2.27342 17.61048,1.7046 24.8768,-1.48132 0.0446,1.29219 0.0791,2.52702 0.10855,3.5931 0.0483,1.72971 0.0957,3.4253 0.15927,5.01091 0.43042,10.72338 1.15994,19.061 3.32149,24.89434 0.11851,0.32139 0.27825,0.8101 0.44701,1.32821 1.07793,3.30205 2.88159,8.829181 7.46872,13.158446 4.75115,4.483789 10.49727,5.859414 15.75989,5.858933 2.63936,0 5.15786,-0.346035 7.36634,-0.819583 7.87401,-1.687056 16.81601,-4.258164 23.28454,-13.468454 6.11539,-8.707352 9.08847,-21.821712 9.62649,-42.486322 0.0697,-0.584 0.13415,-1.14193 0.19625,-1.67378 0.0417,-0.35884 0.0844,-0.72573 0.12751,-1.09168 l 1.44103,0.12657 0.37116,0.0251 c 8.01955,0.36548 17.82521,-1.33533 23.84721,-4.13254 4.75873,-2.20848 20.00715,-10.25836 16.41689,-21.12773"
             fill="#000000"
             id="path1-74"
             style="stroke-width:0.801768" /><path
             d="m -148.68924,-167.49881 c -23.84437,4.91847 -25.48354,-3.15464 -25.48354,-3.15464 25.17589,-37.3569 35.70019,-84.77593 26.61788,-96.38146 -24.77725,-31.65772 -67.66792,-16.68566 -68.38369,-16.29696 l -0.23038,0.0412 c -4.71085,-0.97791 -9.98295,-1.56048 -15.90825,-1.65718 -10.78927,-0.17682 -18.9733,2.8285 -25.18349,7.53793 0,0 -76.51274,-31.52025 -72.95424,39.64265 0.75702,15.13939 21.69894,114.55129 46.67765,84.52422 9.1297,-10.97983 17.95082,-20.26359 17.95082,-20.26359 4.38141,2.91051 9.62649,4.39515 15.12517,3.86187 l 0.4271,-0.36262 c -0.13273,1.36329 -0.0721,2.69672 0.17112,4.27523 -6.43488,7.18952 -4.544,8.45185 -17.4076,11.09975 -13.01623,2.6825 -5.36974,7.4583 -0.37732,8.7064 6.05234,1.51356 20.05455,3.65757 29.5156,-9.58666 l -0.37732,1.51118 c 2.52133,2.01934 4.29181,13.13569 3.99507,23.2125 -0.29673,10.07728 -0.49488,16.99566 1.49175,22.39955 1.98664,5.40387 3.96664,17.562596 20.87698,13.939152 14.1302,-3.028068 21.45245,-10.875062 22.47113,-23.964302 0.72288,-9.30557 2.35874,-7.92995 2.46208,-16.24955 l 1.3121,-3.93867 c 1.51308,-12.61426 0.24033,-16.68376 8.94578,-14.79098 l 2.11557,0.18582 c 6.40739,0.29152 14.79335,-1.03053 19.71515,-3.31817 10.59824,-4.91848 16.8838,-13.13048 6.43393,-10.97271 h 8.1e-4"
             fill="#336791"
             id="path2-56"
             style="stroke-width:0.801768" /><path
             d="m -252.78213,-230.99674 c -2.14828,-0.29911 -4.09462,-0.0223 -5.07917,0.72289 -0.55413,0.41951 -0.72526,0.90538 -0.77124,1.24004 -0.12372,0.88596 0.49725,1.86529 0.87836,2.3706 1.07889,1.43013 2.65549,2.41326 4.21598,2.62989 0.2261,0.0313 0.45079,0.0464 0.67453,0.0464 2.6024,0 4.96778,-2.02598 5.17635,-3.52153 0.26071,-1.87287 -2.45829,-3.12145 -5.09481,-3.48834"
             fill="#ffffff"
             id="path3-54"
             style="stroke-width:0.801768" /><path
             d="m -181.59791,-230.93749 h -4.7e-4 c -0.20478,-1.46805 -2.81759,-1.88661 -5.29675,-1.542 -2.47535,0.34509 -4.87629,1.46237 -4.67577,2.93374 0.16117,1.14429 2.22649,3.09775 4.67246,3.09727 0.2062,0 0.41477,-0.0138 0.62476,-0.0431 1.63254,-0.22611 2.8304,-1.2628 3.39923,-1.86055 0.86699,-0.91012 1.36803,-1.92548 1.27654,-2.58533"
             fill="#ffffff"
             id="path4-55"
             style="stroke-width:0.801768" /><path
             d="m -140.75455,-168.05769 c -0.90918,-2.74934 -3.83533,-3.63434 -8.69739,-2.62989 -14.43594,2.97924 -19.60565,0.91534 -21.30361,-0.33466 11.2211,-17.09426 20.45178,-37.75651 25.43141,-57.03555 2.35922,-9.13208 3.66231,-17.61285 3.76849,-24.52507 0.11756,-7.58818 -1.17415,-13.16318 -3.8396,-16.56904 -10.74565,-13.73059 -26.51597,-21.09551 -45.60635,-21.29792 -13.12384,-0.14742 -24.21221,3.21152 -26.36191,4.15577 -4.52693,-1.1258 -9.462,-1.81693 -14.83412,-1.9051 -9.8526,-0.15927 -18.36844,2.19947 -25.41955,7.00703 -3.06267,-1.13956 -10.97793,-3.85666 -20.65703,-5.41573 -16.73496,-2.69483 -30.03276,-0.65321 -39.52273,6.06988 -11.32349,8.02239 -16.55103,22.36257 -15.53804,42.62142 0.34082,6.81647 4.22403,27.78399 10.35317,47.86461 8.06742,26.42922 16.83639,41.39133 26.06375,44.46869 1.07983,0.36026 2.32556,0.61244 3.69834,0.61244 3.36604,0 7.49242,-1.51735 11.78614,-6.679 7.13169,-8.57984 13.79031,-15.76937 16.24481,-18.38171 3.62723,1.94728 7.61141,3.03422 11.68755,3.14325 0.007,0.10666 0.018,0.21331 0.0275,0.31949 -0.8177,0.96985 -1.48845,1.81978 -2.06011,2.54551 -2.82377,3.58458 -3.41156,4.33068 -12.50145,6.20261 -2.58533,0.53327 -9.45347,1.94871 -9.55348,6.76243 -0.1095,5.2593 8.11719,7.46825 9.05481,7.70242 3.2665,0.81769 6.41307,1.22109 9.41412,1.22109 7.29902,-4.8e-4 13.72158,-2.39904 18.85479,-7.04021 -0.15833,18.75003 0.62381,37.22608 2.87496,42.85559 1.84348,4.60799 6.34813,15.870802 20.57692,15.869856 2.08713,0 4.38567,-0.242703 6.91364,-0.784505 14.84929,-3.184028 21.29744,-9.746891 23.79223,-24.216011 1.33485,-7.73276 3.62581,-26.19885 4.70279,-36.10358 2.2739,0.70913 5.20147,1.03384 8.36606,1.03337 6.60032,0 14.21599,-1.40216 18.99226,-3.61918 5.36501,-2.49147 15.04743,-8.60638 13.29164,-13.9183 z m -35.36268,-66.93223 c -0.0493,2.92425 -0.45175,5.57879 -0.87837,8.34994 -0.45886,2.98019 -0.93383,6.06135 -1.05328,9.80187 -0.11804,3.64003 0.33656,7.42464 0.77645,11.08411 0.88832,7.39194 1.79987,15.00239 -1.72924,22.51189 -0.54845,-0.97412 -1.07794,-2.03689 -1.56333,-3.21389 -0.43848,-1.06323 -1.39079,-2.77114 -2.70906,-5.1351 -5.13083,-9.20081 -17.14545,-30.74711 -10.99499,-39.53932 1.83163,-2.61756 6.48086,-5.30765 18.15182,-3.8595 z m -14.14631,-49.53839 c 17.10469,0.3778 30.63477,6.77666 40.2148,19.01786 7.34737,9.38947 -0.74327,52.11329 -24.16529,88.97104 -0.23132,-0.29389 -0.46691,-0.59063 -0.71056,-0.89495 -0.0972,-0.12183 -0.19624,-0.24555 -0.29626,-0.37069 6.05234,-9.99575 4.8687,-19.88532 3.81542,-28.65383 -0.43279,-3.59831 -0.8414,-6.99706 -0.73758,-10.18915 0.10759,-3.38453 0.55508,-6.28603 0.98739,-9.09225 0.53233,-3.45849 1.07319,-7.03642 0.92387,-11.25476 0.1114,-0.44227 0.15643,-0.96512 0.0981,-1.58562 -0.38112,-4.04532 -4.99906,-16.15048 -14.41224,-27.1085 -5.14838,-5.99261 -12.6574,-12.69958 -22.9096,-17.2232 4.40985,-0.91392 10.44039,-1.76621 17.19192,-1.61595 z m -95.71357,129.10052 c -4.73029,5.68735 -7.99726,4.59757 -9.0714,4.23967 -6.99992,-2.33504 -15.12138,-17.12886 -22.28199,-40.5888 -6.19597,-20.29914 -9.81704,-40.7111 -10.10335,-46.43494 -0.90491,-18.10204 3.48313,-30.7182 13.04278,-37.4977 15.55748,-11.03291 41.13583,-4.42928 51.41362,-1.07982 -0.14789,0.14552 -0.30148,0.28204 -0.44795,0.42994 -16.86531,17.03311 -16.46523,46.13441 -16.424,47.91295 -10e-4,0.68639 0.0559,1.65814 0.1351,2.99489 0.2901,4.8943 0.83002,14.00409 -0.61244,24.32076 -1.34101,9.58667 1.61406,18.96998 8.10629,25.74379 0.67217,0.70108 1.37372,1.3595 2.09851,1.97905 -2.89013,3.0949 -9.17048,9.93839 -15.85517,17.98021 z m 18.02288,-24.04772 c -5.23275,-5.45934 -7.60904,-13.05369 -6.52068,-20.83717 1.52352,-10.89829 0.96085,-20.38968 0.6589,-25.48875 -0.0422,-0.71341 -0.0796,-1.33865 -0.10192,-1.83211 2.46398,-2.1843 13.8818,-8.30253 22.02412,-6.43677 3.71635,0.85134 5.97982,3.38121 6.92123,7.7337 4.87202,22.5318 0.64514,31.92317 -2.75124,39.46963 -0.70013,1.55481 -1.3614,3.02428 -1.92643,4.54495 l -0.43753,1.1751 c -1.10827,2.97167 -2.13927,5.73428 -2.77826,8.35801 -5.5622,-0.0171 -10.97366,-2.39288 -15.08819,-6.68659 z m 0.85372,30.38732 c -1.62401,-0.40576 -3.08495,-1.11063 -3.94199,-1.6951 0.71578,-0.33704 1.98996,-0.79494 4.19938,-1.25001 10.69352,-2.20185 12.34455,-3.75522 15.95092,-8.33429 0.82718,-1.04949 1.76432,-2.23977 3.0622,-3.68934 4.7e-4,-8e-4 8e-4,-0.002 0.002,-0.002 1.93355,-2.1644 2.81761,-1.7975 4.42123,-1.13245 1.29977,0.53802 2.56542,2.16677 3.07879,3.95953 0.2427,0.8466 0.51574,2.45402 -0.37685,3.70402 -7.53367,10.54799 -18.51112,10.41242 -26.3951,8.43953 z m 55.96236,52.076791 c -13.08165,2.8029 -17.71334,-3.871831 -20.76559,-11.502201 -1.97004,-4.92653 -2.93799,-27.14074 -2.25113,-51.67197 0.009,-0.3266 -0.0375,-0.64183 -0.12752,-0.93809 -0.0782,-0.57215 -0.19861,-1.15093 -0.36547,-1.73351 -1.02199,-3.56941 -3.5111,-6.55528 -6.49745,-7.79296 -1.18648,-0.49156 -3.36463,-1.39363 -5.98172,-0.72431 0.55841,-2.29949 1.52637,-4.89572 2.57538,-7.70763 l 0.44037,-1.18317 c 0.49583,-1.33343 1.11728,-2.71474 1.77522,-4.17662 3.55423,-7.8963 8.42199,-18.71117 3.13899,-43.1438 -1.97905,-9.15104 -8.58695,-13.61967 -18.60451,-12.58203 -6.00588,0.62145 -11.49983,3.04466 -14.24016,4.43402 -0.58921,0.29864 -1.12818,0.58685 -1.63159,0.86794 0.7646,-9.22072 3.65472,-26.45198 14.46438,-37.35406 6.80556,-6.86387 15.86985,-10.25362 26.91367,-10.07112 21.76009,0.35647 35.71394,11.52353 43.58891,20.8291 6.78566,8.01907 10.46029,16.09644 11.92692,20.45273 -11.02817,-1.12107 -18.52866,1.05612 -22.33128,6.49176 -8.27173,11.82406 4.52551,34.77443 10.67598,45.80402 1.1277,2.02172 2.10134,3.7685 2.40756,4.51081 2.00276,4.85402 4.59567,8.09444 6.48892,10.4603 0.58021,0.72479 1.14335,1.42776 1.57139,2.04163 -3.33998,0.96321 -9.3397,3.18781 -8.79315,14.30889 -0.44084,5.58069 -3.57698,31.70701 -5.16971,40.93769 -2.10277,12.19475 -6.59035,16.737321 -19.20841,19.442581 z m 54.60381,-62.487311 c -3.41535,1.58562 -9.13114,2.77494 -14.56108,3.02997 -5.99735,0.28109 -9.05008,-0.6717 -9.76822,-1.25759 -0.3375,-6.93024 2.24261,-7.65455 4.97252,-8.42105 0.42899,-0.12087 0.84755,-0.23795 1.25142,-0.37921 0.25123,0.2043 0.52617,0.40719 0.82717,0.6058 4.82035,3.18166 13.4182,3.52484 25.5556,1.01963 0.0446,-0.009 0.0891,-0.018 0.1332,-0.027 -1.63681,1.53063 -4.43829,3.58504 -8.41061,5.42947 z"
             fill="#ffffff"
             id="path5-1"
             style="stroke-width:0.801768" /></g></g></g></g><style
     type="text/css"
     id="style1">&#10;	.st0{fill:#76C2AF;}&#10;	.st1{opacity:0.2;}&#10;	.st2{fill:#231F20;}&#10;	.st3{fill:#FFFFFF;}&#10;</style><style
     type="text/css"
     id="style1-1">&#10;	.st0{fill:#C75C5C;}&#10;	.st1{opacity:0.2;}&#10;	.st2{fill:#231F20;}&#10;	.st3{fill:#E0995E;}&#10;	.st4{fill:#F5CF87;}&#10;	.st5{fill:#4F5D73;}&#10;</style><style
     type="text/css"
     id="style1-9">	.st0{clip-path:url(#SVGID_2_);fill:#E30613;}	.st1{clip-path:url(#SVGID_2_);}</style></svg>
